<svg width="135" height="37" viewBox="0 0 135 37" fill="none" xmlns="http://www.w3.org/2000/svg">
<path d="M5.93636 7.14336L4.29419 6.85327L0.000318722 31.1605L1.64249 31.4506L5.93636 7.14336Z" fill="#0B2253"/>
<path d="M8.3453 7.56865L6.70312 7.27856L2.40925 31.5858L4.05143 31.8759L8.3453 7.56865Z" fill="#0B2253"/>
<path d="M10.8087 8.00347L9.1665 7.71338L4.87263 32.0206L6.51481 32.3107L10.8087 8.00347Z" fill="#0B2253"/>
<path d="M12.3761 13.1922L10.7339 12.9021L7.28134 32.4467L8.92351 32.7368L12.3761 13.1922Z" fill="#0B2253"/>
<path d="M15.6812 8.86431L14.0391 8.57422L9.74519 32.8815L11.3874 33.1716L15.6812 8.86431Z" fill="#0B2253"/>
<path d="M11.5937 12.8275C11.9262 12.8863 12.226 12.7624 12.2634 12.551C12.3007 12.3395 12.0615 12.1204 11.729 12.0617C11.3965 12.0029 11.0967 12.1268 11.0593 12.3383C11.0219 12.5497 11.2612 12.7688 11.5937 12.8275Z" fill="#0B2253"/>
<path d="M11.1752 11.6818L12.3613 11.8914L13.6348 4.68252C13.6872 4.41597 13.7918 4.16238 13.9426 3.93641C14.0934 3.71044 14.2874 3.51657 14.5134 3.36585C14.7394 3.21514 14.993 3.11055 15.2596 3.05822C15.5261 3.00588 15.8004 3.00679 16.0666 3.06086C18.1417 3.3521 24.0963 4.4793 24.0963 4.4793C24.6839 4.61507 25.2138 4.93255 25.6106 5.38661C25.9192 5.81219 26.0486 6.3418 25.971 6.86172L24.6976 14.0706L25.8654 14.2769L27.1389 7.06802C27.1904 6.6153 27.1501 6.1568 27.0203 5.72003C26.8906 5.28326 26.674 4.87719 26.3836 4.52606C26.142 4.18908 25.8308 3.90787 25.4712 3.70147C25.1115 3.49508 24.7118 3.36829 24.2989 3.32966L16.2697 1.9113C15.3142 1.82737 14.3591 2.07763 13.5676 2.6194C13.2476 2.87146 12.9807 3.18439 12.7822 3.54007C12.5837 3.89576 12.4576 4.28716 12.411 4.69182L11.1752 11.6818Z" fill="#0B2253"/>
<path d="M33.9666 12.0948L32.3245 11.8047L28.0306 36.1119L29.6728 36.402L33.9666 12.0948Z" fill="#0B2253"/>
<path d="M31.5577 11.6705L29.9155 11.3804L25.6217 35.6876L27.2638 35.9777L31.5577 11.6705Z" fill="#0B2253"/>
<path d="M29.0941 11.2339L27.4519 10.9438L23.158 35.2511L24.8002 35.5412L29.0941 11.2339Z" fill="#0B2253"/>
<path d="M25.8441 15.5716L24.2019 15.2815L20.7494 34.8261L22.3915 35.1162L25.8441 15.5716Z" fill="#0B2253"/>
<path d="M24.2215 10.3743L22.5793 10.0842L18.2855 34.3915L19.9276 34.6816L24.2215 10.3743Z" fill="#0B2253"/>
<path d="M25.0617 15.2069C25.3942 15.2657 25.694 15.1418 25.7314 14.9303C25.7687 14.7189 25.5295 14.4998 25.197 14.4411C24.8645 14.3823 24.5647 14.5062 24.5273 14.7177C24.49 14.9291 24.7292 15.1482 25.0617 15.2069Z" fill="#0B2253"/>
<path d="M30.6895 21.0566L4.30176 16.3953L3.55713 20.6105L29.9449 25.2719L30.6895 21.0566Z" fill="#0B2253"/>
<path d="M7.1281 19.3968L6.77611 19.3347L6.90544 18.6025L6.21905 18.4813L6.08972 19.2134L5.73772 19.1512L6.0395 17.4429L6.3915 17.5051L6.26921 18.1973L6.9556 18.3186L7.07789 17.6263L7.42988 17.6885L7.1281 19.3968ZM7.77225 19.5106L7.43199 19.4505L7.65625 18.181L7.99651 18.2411L7.77225 19.5106ZM7.69434 17.849C7.70332 17.7981 7.72753 17.7592 7.76697 17.7323C7.80719 17.7055 7.85663 17.6973 7.9153 17.7077C7.97318 17.7179 8.01643 17.7425 8.04504 17.7814C8.07366 17.8204 8.08347 17.8653 8.07449 17.9161C8.06537 17.9677 8.04031 18.0069 7.99931 18.0335C7.95909 18.0603 7.91043 18.0686 7.85333 18.0585C7.79622 18.0484 7.75298 18.0239 7.72358 17.9848C7.69497 17.9459 7.68522 17.9006 7.69434 17.849ZM8.62481 19.4035C8.68739 19.4146 8.74127 19.4064 8.78646 19.3788C8.83165 19.3513 8.86007 19.3092 8.87172 19.2523L9.18969 19.3085C9.17371 19.3944 9.13629 19.4693 9.07743 19.5331C9.0187 19.5961 8.94553 19.6405 8.85792 19.6661C8.77122 19.6911 8.67938 19.6951 8.58238 19.6779C8.40091 19.6459 8.26792 19.5631 8.18342 19.4296C8.09905 19.2953 8.07483 19.1265 8.11076 18.9231L8.1147 18.9008C8.14924 18.7053 8.22883 18.5584 8.35345 18.4602C8.47807 18.3621 8.63112 18.329 8.81259 18.3611C8.97138 18.3891 9.09047 18.4569 9.16987 18.5645C9.2502 18.6715 9.27787 18.8002 9.25291 18.9507L8.93494 18.8945C8.94498 18.8285 8.93404 18.7717 8.90212 18.7241C8.87033 18.6758 8.82236 18.6459 8.75822 18.6346C8.67922 18.6206 8.61427 18.639 8.56337 18.6897C8.51339 18.7398 8.477 18.8293 8.4542 18.9584L8.44798 18.9936C8.42491 19.1242 8.42827 19.2216 8.45808 19.2857C8.48788 19.3499 8.54346 19.3892 8.62481 19.4035ZM9.36718 19.1257C9.38942 18.9998 9.4335 18.8918 9.49941 18.8018C9.56531 18.7118 9.6484 18.6479 9.74867 18.6099C9.84973 18.5721 9.96048 18.5638 10.0809 18.5851C10.2522 18.6154 10.3826 18.6925 10.472 18.8163C10.5623 18.9404 10.5977 19.0934 10.5785 19.2756L10.5655 19.3628C10.5311 19.5576 10.4491 19.7044 10.3195 19.8033C10.19 19.9014 10.0338 19.9343 9.85074 19.902C9.6677 19.8697 9.53179 19.7852 9.44301 19.6485C9.35501 19.5119 9.32883 19.3428 9.36448 19.141L9.36718 19.1257ZM9.70191 19.2102C9.68063 19.3307 9.68701 19.427 9.72105 19.4992C9.75522 19.5705 9.81455 19.6137 9.89903 19.6286C9.98116 19.6431 10.0508 19.6232 10.108 19.5687C10.1654 19.5135 10.2063 19.4167 10.2307 19.2783C10.2516 19.1601 10.2447 19.0645 10.21 18.9915C10.1753 18.9184 10.1161 18.8745 10.0324 18.8597C9.94953 18.845 9.87965 18.8662 9.82282 18.9231C9.76612 18.9792 9.72582 19.0749 9.70191 19.2102ZM11.0223 20.0848L10.6821 20.0247L11.0004 18.2224L11.3407 18.2826L11.0223 20.0848ZM12.0859 20.1395C11.9842 20.2264 11.8595 20.2568 11.7116 20.2307C11.5755 20.2067 11.4784 20.1492 11.4202 20.0583C11.3629 19.9675 11.3467 19.8464 11.3718 19.6952L11.5188 18.8633L11.8579 18.9232L11.713 19.7434C11.6897 19.8756 11.7382 19.9523 11.8587 19.9736C11.9737 19.9939 12.0597 19.968 12.1168 19.8958L12.2756 18.997L12.6158 19.0571L12.3916 20.3266L12.0724 20.2703L12.0859 20.1395ZM13.1896 19.1585L13.1751 19.3023C13.2845 19.2079 13.4159 19.1742 13.5692 19.2013C13.7327 19.2302 13.8335 19.3146 13.8717 19.4544C13.9837 19.3411 14.1222 19.299 14.2873 19.3282C14.4249 19.3525 14.5203 19.4109 14.5733 19.5033C14.6265 19.595 14.6389 19.7214 14.6104 19.8825L14.4672 20.6933L14.1269 20.6332L14.2699 19.8236C14.2826 19.7516 14.2778 19.6967 14.2555 19.6589C14.2332 19.6203 14.1865 19.5947 14.1154 19.5821C14.0137 19.5642 13.9347 19.6002 13.8785 19.6903L13.7256 20.5623L13.3866 20.5024L13.5294 19.694C13.5424 19.6205 13.5373 19.5647 13.5141 19.5267C13.491 19.4888 13.4446 19.4637 13.375 19.4514C13.2788 19.4344 13.2021 19.462 13.145 19.5341L12.9865 20.4317L12.6474 20.3718L12.8716 19.1023L13.1896 19.1585ZM15.2652 19.5251L15.2498 19.6736C15.3606 19.5763 15.4923 19.541 15.6448 19.568C15.7793 19.5917 15.8725 19.6489 15.9242 19.7395C15.976 19.8302 15.9888 19.9542 15.9625 20.1117L15.8177 20.9319L15.4786 20.872L15.622 20.06C15.6347 19.9881 15.6283 19.9333 15.6026 19.8957C15.5772 19.8573 15.528 19.8317 15.4553 19.8188C15.3599 19.802 15.2811 19.83 15.219 19.9029L15.0609 20.7982L14.7218 20.7383L14.9461 19.4687L15.2652 19.5251Z" fill="#FA0000"/>
<path d="M56.082 25.4468H52.9372V18.9058H46.805V25.4468H43.6603V10.1844H46.805V16.369H52.9372V10.1844H56.082V25.4468ZM61.8368 25.4468H58.7969V14.1048H61.8368V25.4468ZM58.6187 11.1697C58.6187 10.7155 58.769 10.3416 59.0694 10.0481C59.3769 9.75462 59.7927 9.60787 60.3169 9.60787C60.834 9.60787 61.2463 9.75462 61.5538 10.0481C61.8613 10.3416 62.015 10.7155 62.015 11.1697C62.015 11.631 61.8578 12.0083 61.5433 12.3018C61.2358 12.5954 60.827 12.7421 60.3169 12.7421C59.8067 12.7421 59.3944 12.5954 59.0799 12.3018C58.7724 12.0083 58.6187 11.631 58.6187 11.1697ZM69.0592 23.214C69.6182 23.214 70.0725 23.0603 70.4219 22.7528C70.7713 22.4453 70.953 22.0365 70.967 21.5264H73.8077C73.8007 22.2951 73.5911 23.0009 73.1788 23.6438C72.7664 24.2797 72.2004 24.7759 71.4806 25.1323C70.7678 25.4817 69.9781 25.6564 69.1116 25.6564C67.4903 25.6564 66.2115 25.1428 65.275 24.1155C64.3386 23.0812 63.8704 21.6556 63.8704 19.8387V19.6395C63.8704 17.8925 64.3351 16.4983 65.2645 15.4571C66.194 14.4158 67.4693 13.8952 69.0906 13.8952C70.5092 13.8952 71.6448 14.3005 72.4974 15.1111C73.357 15.9148 73.7937 16.9875 73.8077 18.3292H70.967C70.953 17.7422 70.7713 17.267 70.4219 16.9036C70.0725 16.5332 69.6112 16.3481 69.0382 16.3481C68.3324 16.3481 67.7978 16.6066 67.4344 17.1238C67.078 17.6339 66.8998 18.4655 66.8998 19.6186V19.933C66.8998 21.1001 67.078 21.9387 67.4344 22.4488C67.7908 22.959 68.3324 23.214 69.0592 23.214ZM75.0656 19.671C75.0656 18.5459 75.2822 17.543 75.7155 16.6625C76.1488 15.782 76.7707 15.1006 77.5814 14.6185C78.399 14.1363 79.3459 13.8952 80.4221 13.8952C81.9525 13.8952 83.1999 14.3634 84.1643 15.2998C85.1357 16.2362 85.6773 17.5081 85.7891 19.1154L85.81 19.8911C85.81 21.6312 85.3244 23.0288 84.353 24.0841C83.3816 25.1323 82.0783 25.6564 80.4431 25.6564C78.8078 25.6564 77.501 25.1323 76.5226 24.0841C75.5513 23.0358 75.0656 21.6102 75.0656 19.8072V19.671ZM78.095 19.8911C78.095 20.9673 78.2977 21.7919 78.703 22.365C79.1083 22.931 79.6883 23.214 80.4431 23.214C81.1768 23.214 81.7499 22.9345 82.1622 22.3754C82.5745 21.8094 82.7806 20.9079 82.7806 19.671C82.7806 18.6157 82.5745 17.7981 82.1622 17.2181C81.7499 16.6381 81.1698 16.3481 80.4221 16.3481C79.6813 16.3481 79.1083 16.6381 78.703 17.2181C78.2977 17.7911 78.095 18.6821 78.095 19.8911ZM90.873 25.4468H87.8331V9.34581H90.873V25.4468ZM100.171 24.2937C99.4232 25.2022 98.3889 25.6564 97.0681 25.6564C95.8522 25.6564 94.9227 25.307 94.2798 24.6082C93.6439 23.9094 93.3189 22.8856 93.305 21.5368V14.1048H96.3344V21.432C96.3344 22.613 96.8725 23.2035 97.9487 23.2035C98.9759 23.2035 99.6818 22.8471 100.066 22.1343V14.1048H103.106V25.4468H100.255L100.171 24.2937ZM108.232 14.1048L108.326 15.3732C109.13 14.3878 110.217 13.8952 111.586 13.8952C113.047 13.8952 114.05 14.4717 114.595 15.6248C115.391 14.4717 116.527 13.8952 118.001 13.8952C119.231 13.8952 120.147 14.2551 120.748 14.9749C121.349 15.6877 121.649 16.7639 121.649 18.2034V25.4468H118.609V18.2139C118.609 17.571 118.484 17.1028 118.232 16.8093C117.981 16.5088 117.537 16.3585 116.901 16.3585C115.992 16.3585 115.363 16.7918 115.014 17.6584L115.024 25.4468H111.995V18.2244C111.995 17.5675 111.866 17.0923 111.607 16.7988C111.349 16.5053 110.908 16.3585 110.286 16.3585C109.427 16.3585 108.805 16.7149 108.421 17.4277V25.4468H105.391V14.1048H108.232ZM126.775 14.1048L126.87 15.4151C127.68 14.4018 128.767 13.8952 130.13 13.8952C131.332 13.8952 132.226 14.2481 132.813 14.9539C133.4 15.6597 133.701 16.7149 133.715 18.1196V25.4468H130.685V18.193C130.685 17.55 130.545 17.0853 130.266 16.7988C129.986 16.5053 129.522 16.3585 128.872 16.3585C128.019 16.3585 127.38 16.7219 126.953 17.4487V25.4468H123.924V14.1048H126.775Z" fill="#0B2253"/>
</svg>
