<svg width="31" height="31" viewBox="0 0 31 31" fill="none" xmlns="http://www.w3.org/2000/svg">
<path d="M15.5 0.619873C7.2819 0.619873 0.619995 7.28177 0.619995 15.4999C0.619995 23.718 7.2819 30.3799 15.5 30.3799C23.7181 30.3799 30.38 23.718 30.38 15.4999C30.38 7.28177 23.7181 0.619873 15.5 0.619873ZM11.8575 21.6673H8.8443V11.9705H11.8575V21.6673ZM10.3323 10.7801C9.3806 10.7801 8.76525 10.1059 8.76525 9.27197C8.76525 8.42102 9.3992 7.76692 10.371 7.76692C11.3429 7.76692 11.9381 8.42102 11.9567 9.27197C11.9567 10.1059 11.3429 10.7801 10.3323 10.7801ZM22.8625 21.6673H19.8493V16.2935C19.8493 15.0426 19.4122 14.1932 18.3225 14.1932C17.4902 14.1932 16.9957 14.7683 16.7772 15.3216C16.6966 15.5185 16.6764 15.7975 16.6764 16.0749V21.6658H13.6617V15.0628C13.6617 13.8522 13.6229 12.8401 13.5826 11.969H16.2006L16.3385 13.3159H16.399C16.7958 12.6835 17.7676 11.7504 19.3936 11.7504C21.376 11.7504 22.8625 13.0788 22.8625 15.9339V21.6673Z" fill="#3F729B"/>
</svg>
